<svg xmlns="http://www.w3.org/2000/svg" viewBox="0 0 128 128">
  <!-- Calculator body -->
  <rect x="16" y="20" width="96" height="88" rx="8" fill="#e5e7eb" stroke="#9ca3af" stroke-width="2"/>
  
  <!-- Display screen -->
  <rect x="24" y="28" width="80" height="20" rx="2" fill="#374151"/>
  
  <!-- Display numbers -->
  <text x="96" y="42" font-family="monospace" font-size="12" fill="white" text-anchor="end">100000</text>
  
  <!-- Paper roll -->
  <rect x="24" y="8" width="48" height="24" rx="2" fill="#f9fafb" stroke="#d1d5db"/>
  <line x1="28" y1="14" x2="44" y2="14" stroke="#9ca3af" stroke-width="1"/>
  <line x1="28" y1="18" x2="36" y2="18" stroke="#9ca3af" stroke-width="1"/>
  <line x1="28" y1="22" x2="48" y2="22" stroke="#9ca3af" stroke-width="1"/>
  <line x1="28" y1="26" x2="40" y2="26" stroke="#9ca3af" stroke-width="1"/>
  
  <!-- Paper roll handle -->
  <rect x="72" y="12" width="8" height="16" rx="2" fill="#6b7280"/>
  
  <!-- Button grid -->
  <!-- Row 1 -->
  <rect x="28" y="56" width="12" height="8" rx="1" fill="#4b5563"/>
  <rect x="44" y="56" width="12" height="8" rx="1" fill="#4b5563"/>
  <rect x="60" y="56" width="12" height="8" rx="1" fill="#4b5563"/>
  <rect x="76" y="56" width="12" height="8" rx="1" fill="#ef4444"/>
  
  <!-- Row 2 -->
  <rect x="28" y="68" width="12" height="8" rx="1" fill="#4b5563"/>
  <rect x="44" y="68" width="12" height="8" rx="1" fill="#4b5563"/>
  <rect x="60" y="68" width="12" height="8" rx="1" fill="#4b5563"/>
  <rect x="76" y="68" width="12" height="8" rx="1" fill="#4b5563"/>
  
  <!-- Row 3 -->
  <rect x="28" y="80" width="12" height="8" rx="1" fill="#4b5563"/>
  <rect x="44" y="80" width="12" height="8" rx="1" fill="#4b5563"/>
  <rect x="60" y="80" width="12" height="8" rx="1" fill="#4b5563"/>
  <rect x="76" y="80" width="12" height="16" rx="1" fill="#4b5563"/>
  
  <!-- Row 4 -->
  <rect x="28" y="92" width="12" height="8" rx="1" fill="#4b5563"/>
  <rect x="44" y="92" width="12" height="8" rx="1" fill="#4b5563"/>
  <rect x="60" y="92" width="12" height="8" rx="1" fill="#4b5563"/>
</svg>